<svg width="100" height="100" viewBox="0 0 100 100" fill="none" xmlns="http://www.w3.org/2000/svg">
<g clip-path="url(#clip0_1_4)">
<rect width="100" height="100" fill="url(#paint0_linear_1_4)"/>
<path d="M76 50C76 40.7174 77.475 31.815 80.1005 25.2513C82.726 18.6875 86.287 15 90 15C93.713 15 97.274 18.6875 99.8995 25.2513C102.525 31.815 104 40.7174 104 50L98.8962 50C98.8962 44.1015 97.9589 38.4445 96.2906 34.2736C94.6222 30.1028 92.3594 27.7596 90 27.7596C87.6406 27.7596 85.3778 30.1028 83.7095 34.2736C82.0411 38.4445 81.1038 44.1015 81.1038 50L76 50Z" fill="#18ACFF" fill-opacity="0.2"/>
<path d="M81 50C81 59.2826 79.0509 68.185 75.5815 74.7487C72.1121 81.3125 67.4065 85 62.5 85C57.5935 85 52.8879 81.3125 49.4185 74.7487C45.9491 68.185 44 59.2826 44 50L48.9462 50C48.9462 56.8007 50.3742 63.3229 52.916 68.1318C55.4579 72.9406 58.9053 75.6422 62.5 75.6422C66.0947 75.6422 69.5421 72.9406 72.084 68.1318C74.6258 63.3229 76.0538 56.8007 76.0538 50L81 50Z" fill="#18ACFF" fill-opacity="0.2"/>
<path d="M10 50C10 44.1652 12.0545 38.5695 15.7114 34.4437C19.3684 30.3179 24.3283 28 29.5 28C34.6717 28 39.6316 30.3179 43.2886 34.4437C46.9456 38.5695 49 44.1652 49 50L43.9406 50C43.9406 45.6791 42.4192 41.5352 39.711 38.4799C37.0029 35.4246 33.3299 33.7081 29.5 33.7081C25.6701 33.7081 21.9971 35.4246 19.289 38.4799C16.5809 41.5352 15.0595 45.6791 15.0595 50L10 50Z" fill="#18ACFF" fill-opacity="0.2"/>
<path d="M15 50C15 55.8348 13.6304 61.4305 11.1924 65.5563C8.75444 69.6821 5.44784 72 2.00002 72C-1.44779 72 -4.75439 69.6821 -7.19237 65.5563C-9.63034 61.4305 -11 55.8348 -11 50L-6.00302 50C-6.00302 53.592 -5.15985 57.0369 -3.65899 59.5768C-2.15812 62.1167 -0.122515 63.5436 2.00003 63.5436C4.12257 63.5436 6.15818 62.1167 7.65904 59.5768C9.15991 57.0369 10.0031 53.592 10.0031 50L15 50Z" fill="#18ACFF" fill-opacity="0.2"/>
<path d="M56 50C56 40.7174 57.475 31.815 60.1005 25.2513C62.726 18.6875 66.287 15 70 15C73.713 15 77.274 18.6875 79.8995 25.2513C82.525 31.815 84 40.7174 84 50L78.8962 50C78.8962 44.1015 77.9589 38.4445 76.2905 34.2736C74.6222 30.1028 72.3594 27.7596 70 27.7596C67.6406 27.7596 65.3778 30.1028 63.7095 34.2736C62.0411 38.4445 61.1038 44.1015 61.1038 50L56 50Z" fill="#FF2418" fill-opacity="0.8"/>
<path d="M61 50C61 59.2826 59.0509 68.185 55.5815 74.7487C52.1121 81.3125 47.4065 85 42.5 85C37.5935 85 32.8879 81.3125 29.4185 74.7487C25.9491 68.185 24 59.2826 24 50L28.9462 50C28.9462 56.8007 30.3742 63.3229 32.916 68.1318C35.4579 72.9406 38.9053 75.6422 42.5 75.6422C46.0947 75.6422 49.5421 72.9406 52.084 68.1318C54.6258 63.3229 56.0538 56.8007 56.0538 50L61 50Z" fill="#FF2418" fill-opacity="0.8"/>
<path d="M-10 50C-10 44.1652 -7.94554 38.5695 -4.28858 34.4437C-0.631624 30.3179 4.32828 28 9.5 28C14.6717 28 19.6316 30.3179 23.2886 34.4437C26.9455 38.5695 29 44.1652 29 50L23.9406 50C23.9406 45.6791 22.4191 41.5352 19.711 38.4799C17.0029 35.4246 13.3299 33.7081 9.5 33.7081C5.67013 33.7081 1.99712 35.4246 -0.711011 38.4799C-3.41914 41.5352 -4.94055 45.6791 -4.94055 50L-10 50Z" fill="#FF2418" fill-opacity="0.8"/>
<path d="M105 50C105 55.8348 103.63 61.4305 101.192 65.5563C98.7544 69.6821 95.4478 72 92 72C88.5522 72 85.2456 69.6821 82.8076 65.5563C80.3696 61.4305 79 55.8348 79 50L83.997 50C83.997 53.592 84.8401 57.0369 86.341 59.5768C87.8419 62.1167 89.8775 63.5436 92 63.5436C94.1226 63.5436 96.1582 62.1167 97.659 59.5768C99.1599 57.0369 100.003 53.592 100.003 50L105 50Z" fill="#FF2418" fill-opacity="0.8"/>
</g>
<defs>
<linearGradient id="paint0_linear_1_4" x1="50" y1="0" x2="50" y2="100" gradientUnits="userSpaceOnUse">
<stop stop-color="#242424"/>
<stop offset="1" stop-color="#121212"/>
</linearGradient>
<clipPath id="clip0_1_4">
<rect width="100" height="100" fill="white"/>
</clipPath>
</defs>
</svg>
